<?xml version="1.0" encoding="UTF-8"?>
<svg viewBox="0 0 1379.9589 955.68878" xmlns="http://www.w3.org/2000/svg">
 <path transform="translate(89.356 145.58)" d="m104 80-64.416-0.23995-32-55.906 32.416-55.666 64.416 0.23995 32 55.906-32.416 55.666z" fill="none" stroke="#000" stroke-linecap="round" stroke-width="3.5433"/>
 <path transform="translate(185.36 201.58)" d="m104 80-64.416-0.23995-32-55.906 32.416-55.666 64.416 0.23995 32 55.906-32.416 55.666z" fill="none" stroke="#000" stroke-linecap="round" stroke-width="3.5433"/>
 <path transform="translate(185.77 89.823)" d="m104 80-64.416-0.23995-32-55.906 32.416-55.666 64.416 0.23995 32 55.906-32.416 55.666z" fill="none" stroke="#000" stroke-linecap="round" stroke-width="3.5433"/>
 <path transform="translate(281.77 145.82)" d="m104 80-64.416-0.23995-32-55.906 32.416-55.666 64.416 0.23995 32 55.906-32.416 55.666z" fill="none" stroke="#000" stroke-linecap="round" stroke-width="3.5433"/>
 <path transform="translate(185.77 313.92)" d="m104 80-64.416-0.23995-32-55.906 32.416-55.666 64.416 0.23995 32 55.906-32.416 55.666z" fill="none" stroke="#000" stroke-linecap="round" stroke-width="3.5433"/>
 <path transform="translate(281.77 369.92)" d="m104 80-64.416-0.23995-32-55.906 32.416-55.666 64.416 0.23995 32 55.906-32.416 55.666z" fill="none" stroke="#000" stroke-linecap="round" stroke-width="3.5433"/>
 <path transform="translate(282.19 258.16)" d="m104 80-64.416-0.23995-32-55.906 32.416-55.666 64.416 0.23995 32 55.906-32.416 55.666z" fill="none" stroke="#000" stroke-linecap="round" stroke-width="3.5433"/>
 <path transform="translate(378.19 314.16)" d="m104 80-64.416-0.23995-32-55.906 32.416-55.666 64.416 0.23995 32 55.906-32.416 55.666z" fill="none" stroke="#000" stroke-linecap="round" stroke-width="3.5433"/>
 <path transform="translate(376.94 201.25)" d="m104 80-64.416-0.23995-32-55.906 32.416-55.666 64.416 0.23995 32 55.906-32.416 55.666z" fill="none" stroke="#000" stroke-linecap="round" stroke-width="3.5433"/>
 <path transform="translate(472.94 257.25)" d="m104 80-64.416-0.23995-32-55.906 32.416-55.666 64.416 0.23995 32 55.906-32.416 55.666z" fill="none" stroke="#000" stroke-linecap="round" stroke-width="3.5433"/>
 <path transform="translate(473.36 145.49)" d="m104 80-64.416-0.23995-32-55.906 32.416-55.666 64.416 0.23995 32 55.906-32.416 55.666z" fill="none" stroke="#000" stroke-linecap="round" stroke-width="3.5433"/>
 <path transform="translate(569.36 201.49)" d="m104 80-64.416-0.23995-32-55.906 32.416-55.666 64.416 0.23995 32 55.906-32.416 55.666z" fill="none" stroke="#000" stroke-linecap="round" stroke-width="3.5433"/>
 <path transform="translate(473.36 369.58)" d="m104 80-64.416-0.23995-32-55.906 32.416-55.666 64.416 0.23995 32 55.906-32.416 55.666z" fill="none" stroke="#000" stroke-linecap="round" stroke-width="3.5433"/>
 <path transform="translate(569.36 425.58)" d="m104 80-64.416-0.23995-32-55.906 32.416-55.666 64.416 0.23995 32 55.906-32.416 55.666z" fill="none" stroke="#000" stroke-linecap="round" stroke-width="3.5433"/>
 <path transform="translate(569.77 313.82)" d="m104 80-64.416-0.23995-32-55.906 32.416-55.666 64.416 0.23995 32 55.906-32.416 55.666z" fill="none" stroke="#000" stroke-linecap="round" stroke-width="3.5433"/>
 <path transform="translate(665.77 369.82)" d="m104 80-64.416-0.23995-32-55.906 32.416-55.666 64.416 0.23995 32 55.906-32.416 55.666z" fill="none" stroke="#000" stroke-linecap="round" stroke-width="3.5433"/>
 <path transform="translate(281.77 481.92)" d="m104 80-64.416-0.23995-32-55.906 32.416-55.666 64.416 0.23995 32 55.906-32.416 55.666z" fill="none" stroke="#000" stroke-linecap="round" stroke-width="3.5433"/>
 <path transform="translate(377.77 537.92)" d="m104 80-64.416-0.23995-32-55.906 32.416-55.666 64.416 0.23995 32 55.906-32.416 55.666z" fill="none" stroke="#000" stroke-linecap="round" stroke-width="3.5433"/>
 <path transform="translate(378.19 426.16)" d="m104 80-64.416-0.23995-32-55.906 32.416-55.666 64.416 0.23995 32 55.906-32.416 55.666z" fill="none" stroke="#000" stroke-linecap="round" stroke-width="3.5433"/>
 <path transform="translate(474.19 482.16)" d="m104 80-64.416-0.23995-32-55.906 32.416-55.666 64.416 0.23995 32 55.906-32.416 55.666z" fill="none" stroke="#000" stroke-linecap="round" stroke-width="3.5433"/>
 <path transform="translate(378.19 650.25)" d="m104 80-64.416-0.23995-32-55.906 32.416-55.666 64.416 0.23995 32 55.906-32.416 55.666z" fill="none" stroke="#000" stroke-linecap="round" stroke-width="3.5433"/>
 <path transform="translate(474.19 706.25)" d="m104 80-64.416-0.23995-32-55.906 32.416-55.666 64.416 0.23995 32 55.906-32.416 55.666z" fill="none" stroke="#000" stroke-linecap="round" stroke-width="3.5433"/>
 <path transform="translate(474.6 594.49)" d="m104 80-64.416-0.23995-32-55.906 32.416-55.666 64.416 0.23995 32 55.906-32.416 55.666z" fill="none" stroke="#000" stroke-linecap="round" stroke-width="3.5433"/>
 <path transform="translate(570.6 650.49)" d="m104 80-64.416-0.23995-32-55.906 32.416-55.666 64.416 0.23995 32 55.906-32.416 55.666z" fill="none" stroke="#000" stroke-linecap="round" stroke-width="3.5433"/>
 <path transform="translate(569.36 537.58)" d="m104 80-64.416-0.23995-32-55.906 32.416-55.666 64.416 0.23995 32 55.906-32.416 55.666z" fill="none" stroke="#000" stroke-linecap="round" stroke-width="3.5433"/>
 <path transform="translate(665.36 593.58)" d="m104 80-64.416-0.23995-32-55.906 32.416-55.666 64.416 0.23995 32 55.906-32.416 55.666z" fill="none" stroke="#000" stroke-linecap="round" stroke-width="3.5433"/>
 <path transform="translate(665.77 481.82)" d="m104 80-64.416-0.23995-32-55.906 32.416-55.666 64.416 0.23995 32 55.906-32.416 55.666z" fill="none" stroke="#000" stroke-linecap="round" stroke-width="3.5433"/>
 <path transform="translate(761.77 537.82)" d="m104 80-64.416-0.23995-32-55.906 32.416-55.666 64.416 0.23995 32 55.906-32.416 55.666z" fill="none" stroke="#000" stroke-linecap="round" stroke-width="3.5433"/>
 <path transform="translate(665.77 705.92)" d="m104 80-64.416-0.23995-32-55.906 32.416-55.666 64.416 0.23995 32 55.906-32.416 55.666z" fill="none" stroke="#000" stroke-linecap="round" stroke-width="3.5433"/>
 <path transform="translate(761.77 761.92)" d="m104 80-64.416-0.23995-32-55.906 32.416-55.666 64.416 0.23995 32 55.906-32.416 55.666z" fill="none" stroke="#000" stroke-linecap="round" stroke-width="3.5433"/>
 <path transform="translate(762.19 650.16)" d="m104 80-64.416-0.23995-32-55.906 32.416-55.666 64.416 0.23995 32 55.906-32.416 55.666z" fill="none" stroke="#000" stroke-linecap="round" stroke-width="3.5433"/>
 <path transform="translate(858.19 706.16)" d="m104 80-64.416-0.23995-32-55.906 32.416-55.666 64.416 0.23995 32 55.906-32.416 55.666z" fill="none" stroke="#000" stroke-linecap="round" stroke-width="3.5433"/>
 <path transform="translate(760.52 425.1)" d="m104 80-64.416-0.23995-32-55.906 32.416-55.666 64.416 0.23995 32 55.906-32.416 55.666z" fill="none" stroke="#000" stroke-linecap="round" stroke-width="3.5433"/>
 <path transform="translate(856.52 481.1)" d="m104 80-64.416-0.23995-32-55.906 32.416-55.666 64.416 0.23995 32 55.906-32.416 55.666z" fill="none" stroke="#000" stroke-linecap="round" stroke-width="3.5433"/>
 <path transform="translate(856.94 369.34)" d="m104 80-64.416-0.23995-32-55.906 32.416-55.666 64.416 0.23995 32 55.906-32.416 55.666z" fill="none" stroke="#000" stroke-linecap="round" stroke-width="3.5433"/>
 <path transform="translate(952.94 425.34)" d="m104 80-64.416-0.23995-32-55.906 32.416-55.666 64.416 0.23995 32 55.906-32.416 55.666z" fill="none" stroke="#000" stroke-linecap="round" stroke-width="3.5433"/>
 <path transform="translate(856.94 593.44)" d="m104 80-64.416-0.23995-32-55.906 32.416-55.666 64.416 0.23995 32 55.906-32.416 55.666z" fill="none" stroke="#000" stroke-linecap="round" stroke-width="3.5433"/>
 <path transform="translate(952.94 649.44)" d="m104 80-64.416-0.23995-32-55.906 32.416-55.666 64.416 0.23995 32 55.906-32.416 55.666z" fill="none" stroke="#000" stroke-linecap="round" stroke-width="3.5433"/>
 <path transform="translate(953.36 537.68)" d="m104 80-64.416-0.23995-32-55.906 32.416-55.666 64.416 0.23995 32 55.906-32.416 55.666z" fill="none" stroke="#000" stroke-linecap="round" stroke-width="3.5433"/>
 <path transform="translate(1049.4 593.68)" d="m104 80-64.416-0.23995-32-55.906 32.416-55.666 64.416 0.23995 32 55.906-32.416 55.666z" fill="none" stroke="#000" stroke-linecap="round" stroke-width="3.5433"/>
 <path transform="translate(1049.4 481.68)" d="m104 80-64.416-0.23995-32-55.906 32.416-55.666 64.416 0.23995 32 55.906-32.416 55.666z" fill="none" stroke="#000" stroke-linecap="round" stroke-width="3.5433"/>
 <path transform="translate(1145.4 537.68)" d="m104 80-64.416-0.23995-32-55.906 32.416-55.666 64.416 0.23995 32 55.906-32.416 55.666z" fill="none" stroke="#000" stroke-linecap="round" stroke-width="3.5433"/>
 <path transform="translate(1145.8 425.92)" d="m104 80-64.416-0.23995-32-55.906 32.416-55.666 64.416 0.23995 32 55.906-32.416 55.666z" fill="none" stroke="#000" stroke-linecap="round" stroke-width="3.5433"/>
 <path transform="translate(1241.8 481.92)" d="m104 80-64.416-0.23995-32-55.906 32.416-55.666 64.416 0.23995 32 55.906-32.416 55.666z" fill="none" stroke="#000" stroke-linecap="round" stroke-width="3.5433"/>
 <path transform="translate(665.36 257.68)" d="m104 80-64.416-0.23995-32-55.906 32.416-55.666 64.416 0.23995 32 55.906-32.416 55.666z" fill="none" stroke="#000" stroke-linecap="round" stroke-width="3.5433"/>
 <path transform="translate(761.36 313.68)" d="m104 80-64.416-0.23995-32-55.906 32.416-55.666 64.416 0.23995 32 55.906-32.416 55.666z" fill="none" stroke="#000" stroke-linecap="round" stroke-width="3.5433"/>
 <path transform="translate(761.77 201.92)" d="m104 80-64.416-0.23995-32-55.906 32.416-55.666 64.416 0.23995 32 55.906-32.416 55.666z" fill="none" stroke="#000" stroke-linecap="round" stroke-width="3.5433"/>
 <path transform="translate(857.77 257.92)" d="m104 80-64.416-0.23995-32-55.906 32.416-55.666 64.416 0.23995 32 55.906-32.416 55.666z" fill="none" stroke="#000" stroke-linecap="round" stroke-width="3.5433"/>
 <path transform="translate(955.96 203.35)" d="m104 80-64.416-0.23995-32-55.906 32.416-55.666 64.416 0.23995 32 55.906-32.416 55.666z" fill="none" stroke="#000" stroke-linecap="round" stroke-width="3.5433"/>
 <path transform="translate(568.94 89.343)" d="m104 80-64.416-0.23995-32-55.906 32.416-55.666 64.416 0.23995 32 55.906-32.416 55.666z" fill="none" stroke="#000" stroke-linecap="round" stroke-width="3.5433"/>
 <path transform="translate(664.94 145.34)" d="m104 80-64.416-0.23995-32-55.906 32.416-55.666 64.416 0.23995 32 55.906-32.416 55.666z" fill="none" stroke="#000" stroke-linecap="round" stroke-width="3.5433"/>
 <path transform="translate(665.36 33.583)" d="m104 80-64.416-0.23995-32-55.906 32.416-55.666 64.416 0.23995 32 55.906-32.416 55.666z" fill="none" stroke="#000" stroke-linecap="round" stroke-width="3.5433"/>
 <path transform="translate(761.36 89.583)" d="m104 80-64.416-0.23995-32-55.906 32.416-55.666 64.416 0.23995 32 55.906-32.416 55.666z" fill="none" stroke="#000" stroke-linecap="round" stroke-width="3.5433"/>
 <path transform="translate(89.772 593.82)" d="m104 80-64.416-0.23995-32-55.906 32.416-55.666 64.416 0.23995 32 55.906-32.416 55.666z" fill="none" stroke="#000" stroke-linecap="round" stroke-width="3.5433"/>
 <path transform="translate(185.77 649.82)" d="m104 80-64.416-0.23995-32-55.906 32.416-55.666 64.416 0.23995 32 55.906-32.416 55.666z" fill="none" stroke="#000" stroke-linecap="round" stroke-width="3.5433"/>
 <path transform="translate(186.19 538.06)" d="m104 80-64.416-0.23995-32-55.906 32.416-55.666 64.416 0.23995 32 55.906-32.416 55.666z" fill="none" stroke="#000" stroke-linecap="round" stroke-width="3.5433"/>
 <path transform="translate(282.19 594.06)" d="m104 80-64.416-0.23995-32-55.906 32.416-55.666 64.416 0.23995 32 55.906-32.416 55.666z" fill="none" stroke="#000" stroke-linecap="round" stroke-width="3.5433"/>
 <path transform="translate(-5.8127 426.25)" d="m104 80-64.416-0.23995-32-55.906 32.416-55.666 64.416 0.23995 32 55.906-32.416 55.666z" fill="none" stroke="#000" stroke-linecap="round" stroke-width="3.5433"/>
 <path transform="translate(90.187 482.25)" d="m104 80-64.416-0.23995-32-55.906 32.416-55.666 64.416 0.23995 32 55.906-32.416 55.666z" fill="none" stroke="#000" stroke-linecap="round" stroke-width="3.5433"/>
 <path transform="translate(90.603 370.49)" d="m104 80-64.416-0.23995-32-55.906 32.416-55.666 64.416 0.23995 32 55.906-32.416 55.666z" fill="none" stroke="#000" stroke-linecap="round" stroke-width="3.5433"/>
 <path transform="translate(186.6 426.49)" d="m104 80-64.416-0.23995-32-55.906 32.416-55.666 64.416 0.23995 32 55.906-32.416 55.666z" fill="none" stroke="#000" stroke-linecap="round" stroke-width="3.5433"/>
 <path transform="translate(186.19 762.16)" d="m104 80-64.416-0.23995-32-55.906 32.416-55.666 64.416 0.23995 32 55.906-32.416 55.666z" fill="none" stroke="#000" stroke-linecap="round" stroke-width="3.5433"/>
 <path transform="translate(282.19 818.16)" d="m104 80-64.416-0.23995-32-55.906 32.416-55.666 64.416 0.23995 32 55.906-32.416 55.666z" fill="none" stroke="#000" stroke-linecap="round" stroke-width="3.5433"/>
 <path transform="translate(282.6 706.4)" d="m104 80-64.416-0.23995-32-55.906 32.416-55.666 64.416 0.23995 32 55.906-32.416 55.666z" fill="none" stroke="#000" stroke-linecap="round" stroke-width="3.5433"/>
 <path transform="translate(378.6 762.4)" d="m104 80-64.416-0.23995-32-55.906 32.416-55.666 64.416 0.23995 32 55.906-32.416 55.666z" fill="none" stroke="#000" stroke-linecap="round" stroke-width="3.5433"/>
 <path transform="translate(857.77 817.92)" d="m104 80-64.416-0.23995-32-55.906 32.416-55.666 64.416 0.23995 32 55.906-32.416 55.666z" fill="none" stroke="#000" stroke-linecap="round" stroke-width="3.5433"/>
 <path transform="translate(953.77 873.92)" d="m104 80-64.416-0.23995-32-55.906 32.416-55.666 64.416 0.23995 32 55.906-32.416 55.666z" fill="none" stroke="#000" stroke-linecap="round" stroke-width="3.5433"/>
 <path transform="translate(954.19 762.16)" d="m104 80-64.416-0.23995-32-55.906 32.416-55.666 64.416 0.23995 32 55.906-32.416 55.666z" fill="none" stroke="#000" stroke-linecap="round" stroke-width="3.5433"/>
 <path transform="translate(1050.2 818.16)" d="m104 80-64.416-0.23995-32-55.906 32.416-55.666 64.416 0.23995 32 55.906-32.416 55.666z" fill="none" stroke="#000" stroke-linecap="round" stroke-width="3.5433"/>
 <path transform="translate(473.77 817.82)" d="m104 80-64.416-0.23995-32-55.906 32.416-55.666 64.416 0.23995 32 55.906-32.416 55.666z" fill="none" stroke="#000" stroke-linecap="round" stroke-width="3.5433"/>
 <path transform="translate(569.77 873.82)" d="m104 80-64.416-0.23995-32-55.906 32.416-55.666 64.416 0.23995 32 55.906-32.416 55.666z" fill="none" stroke="#000" stroke-linecap="round" stroke-width="3.5433"/>
 <path transform="translate(570.19 762.06)" d="m104 80-64.416-0.23995-32-55.906 32.416-55.666 64.416 0.23995 32 55.906-32.416 55.666z" fill="none" stroke="#000" stroke-linecap="round" stroke-width="3.5433"/>
 <path transform="translate(666.19 818.06)" d="m104 80-64.416-0.23995-32-55.906 32.416-55.666 64.416 0.23995 32 55.906-32.416 55.666z" fill="none" stroke="#000" stroke-linecap="round" stroke-width="3.5433"/>
</svg>
